<svg width="100" height="105" viewBox="0 0 100 105" fill="none" xmlns="http://www.w3.org/2000/svg">
<path d="M14.0228 20.3816C18.2038 19.6641 19.4308 23.2604 19.7498 24.8792C20.0688 26.498 22.1578 34.5153 22.6792 36.1004C23.2038 37.6855 25.0535 38.4581 26.2713 39.4545C27.489 40.4509 30.2498 42.41 31.3142 43.2041C31.6884 43.4831 31.9798 43.6639 32.2406 43.7835C33.9768 45.0068 34.2498 45.62 35.1608 47.0518C35.7805 47.8152 36.3602 48.0727 36.1302 48.2689C35.7651 48.5847 34.305 46.9199 34.305 46.9199C34.305 46.9199 35.8265 49.1887 35.7866 49.4462C35.7467 49.7037 35.3357 49.5106 35.3357 49.5106L33.5197 47.0119C33.5197 47.0119 33.9522 47.8244 34.6179 48.7503C35.7222 50.2863 34.8602 50.1544 34.8602 50.1544L32.9737 47.2725C32.9737 47.2725 33.8909 48.8422 34.3817 49.8693C34.4921 50.0992 34.2068 50.3108 34.0167 50.1422C33.4768 49.6639 32.6854 47.9868 31.7498 46.6869C31.7252 46.9322 31.5565 47.481 31.6424 47.6527C31.7344 47.8397 32.1271 48.1923 32.2007 48.5479C32.2743 48.9036 31.7528 48.9036 31.305 48.5479C30.8571 48.1923 30.9062 46.972 30.9062 46.3589C30.9062 45.7457 30.5995 45.4391 30.5995 45.4391C28.6516 43.9767 20.3142 40.7544 18.4246 38.9026C16.5044 37.0202 16.7344 34.7729 14.3449 30.1648C11.9614 25.5568 12.2375 20.6851 14.0228 20.3816Z" fill="#E4AD8E"/>
<path d="M22.5662 50.1851C22.5662 50.1851 23.8331 57.3409 23.8331 61.207C23.8331 65.0731 24.7963 92.568 24.8423 94.3431C24.8883 96.0416 23.8515 98.6415 22.5662 98.9266C21.2809 99.2087 20.7319 99.7759 19.7779 100.625C18.8239 101.474 17.5539 101.922 15.4282 101.732C13.3024 101.542 13.9128 102.422 11.6429 102.514C9.37603 102.609 8.1797 101.98 7.25026 101.192C6.70731 100.729 5.56314 101.248 4.27479 101.474C3.3024 101.646 2.0846 101.389 1.72264 99.4907C1.21344 96.8142 0.5294 99.9384 0.10302 95.2659C-0.32336 90.5935 2.91282 51.1018 6.28399 46.2607C10.0877 46.3772 22.5662 50.1851 22.5662 50.1851Z" fill="#E3AB4A"/>
<path d="M14.8865 0.250977C17.0675 0.250977 20.5583 0.735387 22.5675 2.55039C24.5767 4.3654 25.7178 5.45379 24.8436 7.87585C23.9693 10.2979 23.2423 10.8068 23.2423 15.4517C23.2423 20.0996 24.5767 22.8834 25.6043 25.7868C26.6319 28.6902 27.2362 35.4689 23.6043 35.7111C19.9724 35.9533 18.2761 33.1694 16.4601 33.1694C14.6442 33.1694 12.4632 21.5497 11.9785 19.3729C11.4939 17.1931 11.2515 14.8937 9.79754 13.2013C8.34356 11.5059 7.9816 10.2979 7.9816 7.63364C7.9816 4.96938 10.5245 0.250977 14.8865 0.250977Z" fill="#48391E"/>
<path d="M16.8234 14.0506C16.8234 14.0506 15.3694 17.8033 16.2191 18.4072C17.0657 19.0112 19.0044 21.5528 20.0933 23.0061C21.1823 24.4593 24.7498 27.2738 24.8418 29.6621C24.9338 32.0535 21.7498 33.1572 21.7498 33.1572C21.7498 33.1572 20.7559 35.9349 20.9093 39.5159C21.0627 43.0969 22.5657 50.1852 22.5657 50.1852C22.5657 50.1852 19.3663 52.0431 15.4921 51.384C11.6179 50.7217 6.28965 46.2609 6.28965 46.2609C6.28965 46.2609 8.8326 42.8577 9.07493 40.5552C9.31726 38.2558 9.31727 30.6984 8.71297 27.0347C8.10868 23.3709 8.47064 19.8605 9.80193 17.6806C11.1332 15.5008 12.2252 11.7512 13.1915 7.75634C14.1608 3.76148 16.8234 14.0506 16.8234 14.0506Z" fill="#D39572"/>
<path d="M14.5186 9.01356C13.9603 12.1745 15.2272 15.038 17.3468 15.4121C19.4695 15.7861 21.3345 13.5296 21.8928 10.3687C22.4511 7.20776 23.2118 4.64774 19.3713 3.97017C17.2486 3.59614 15.0769 5.8557 14.5186 9.01356Z" fill="#D39572"/>
<path d="M14.5175 9.01292C14.5175 9.01292 15.0175 15.1662 10.9684 15.2459C10.4132 13.066 9.79663 7.67926 10.1555 6.83307C10.5144 5.98689 14.5359 3.92967 14.5175 9.01292Z" fill="#48391E"/>
<path d="M15.3398 6.97183C15.3398 6.97183 14.8889 5.88037 14.3766 6.09805C13.8644 6.31573 13.4533 7.32134 13.5116 8.07862C13.5699 8.83589 13.9932 9.13021 14.2356 9.02291C14.4779 8.9156 14.7294 8.85735 14.7294 8.85735L15.3398 6.97183Z" fill="#D39572"/>
<path d="M14.5381 19.134C15.532 20.4738 16.6792 24.6342 18.3694 25.1095C19.5228 25.4344 20.3479 24.8366 21.1731 24.2112C22.6455 25.738 24.7712 27.8258 24.8418 29.6654C24.9338 32.0568 21.7498 33.1605 21.7498 33.1605C21.7498 33.1605 20.7559 35.9382 20.9093 39.5191C21.0627 43.1001 22.5657 50.1884 22.5657 50.1884C22.5657 50.1884 19.3663 52.0464 15.4921 51.3872C11.6179 50.725 6.28965 46.2641 6.28965 46.2641C6.28965 46.2641 8.8326 42.861 9.07493 40.5585C9.31726 38.2591 9.31727 30.7016 8.71297 27.0379C8.10868 23.3742 8.47064 19.8637 9.80193 17.6839C11.6363 16.4943 13.4522 17.6716 14.5381 19.134Z" fill="#82AA8E"/>
<path d="M85.3706 74.2284C85.3706 74.2284 86.8276 75.4088 88.708 75.933C90.5883 76.4573 90.8982 74.9857 93.0239 74.6177C95.1497 74.2498 96.3389 73.8206 97.2904 73.5242C98.2417 73.0378 98.8898 72.2734 99.5485 72.582C100.653 73.4037 99.0025 75.4854 98.2417 75.8778C97.481 76.2703 97.1221 77.1747 95.892 77.7848C94.6589 78.3949 92.9718 79.048 91.8675 80.5901C90.7632 82.1322 89.4288 83.4168 88.3245 82.8711C87.2203 82.3254 86.6528 80.2866 86.2264 79.842C85.7969 79.3975 82.1037 76.2335 82.1037 76.2335L85.3706 74.2284Z" fill="#E4AD8E"/>
<path d="M42.9778 65.8673C46.4839 66.7441 62.0054 64.2393 65.4072 69.1416C67.3857 71.9898 70.6465 77.0179 70.6465 83.5421C70.6465 90.0663 65.2907 104.185 45.6219 104.185C25.9563 104.185 17.898 95.3519 17.898 82.2115C17.898 69.0711 26.5913 61.7712 42.9778 65.8673Z" fill="#C4005B"/>
<path d="M33.154 43.0845C33.154 43.0845 34.7705 43.526 35.0957 41.6068C35.4178 39.6875 34.4638 36.873 34.4638 36.873C34.4638 36.873 31.3411 42.5664 33.154 43.0845Z" fill="#AA4469"/>
<path d="M38.2479 41.6072C40.9626 42.1254 41.6405 46.4207 42.5454 47.8525C43.4319 49.2566 44.3215 52.6077 45.9902 53.6623C45.3583 53.9536 44.4841 53.4722 43.9718 53.8984C43.9289 53.6225 42.9074 47.1258 39.6651 46.62C39.07 46.528 38.5639 46.4881 38.1191 46.4851C38.0454 44.6271 36.7847 43.2751 36.1344 41.6042C36.7602 41.4938 37.4718 41.4601 38.2479 41.6072Z" fill="#E4AD8E"/>
<path d="M25.5165 35.8494C26.9091 38.9367 30.0441 42.4134 32.4828 41.4415C35.2772 40.3286 35.1883 36.4871 33.7987 33.3966C32.4061 30.3093 29.7527 28.0252 27.357 29.1044C24.9613 30.1805 24.1239 32.762 25.5165 35.8494Z" fill="#E4AD8E"/>
<path d="M50.5211 65.5818C50.7113 65.3795 50.834 65.2568 50.834 65.2568C50.834 65.2568 50.7174 65.3856 50.5211 65.5818Z" fill="#E4AD8E"/>
<path d="M50.522 65.7353C50.5619 65.7353 50.6017 65.72 50.6324 65.6893C50.8287 65.4901 50.9484 65.3613 50.9484 65.3613C51.0067 65.3 51.0036 65.2049 50.9422 65.1467C50.8809 65.0884 50.7858 65.0915 50.7275 65.1497C50.7275 65.1497 50.6048 65.2754 50.4146 65.4778C50.3564 65.5391 50.3594 65.6342 50.4208 65.6924C50.4484 65.7231 50.4852 65.7353 50.522 65.7353Z" fill="#BD4F72"/>
<path d="M50.9121 61.793C50.9121 61.793 50.7679 61.9585 50.5532 62.1517C50.771 61.9279 50.9121 61.793 50.9121 61.793Z" fill="#E4AD8E"/>
<path d="M50.5539 62.3021C50.5907 62.3021 50.6275 62.2898 50.6551 62.2622C50.876 62.066 51.0232 61.8974 51.0263 61.8912C51.0815 61.8299 51.0754 61.7349 51.0171 61.6797C50.9557 61.6245 50.8637 61.6245 50.8054 61.6828C50.8054 61.6828 50.6643 61.8207 50.4435 62.0415C50.3852 62.0997 50.3852 62.1948 50.4404 62.2561C50.4711 62.2867 50.514 62.3021 50.5539 62.3021Z" fill="#BD4F72"/>
<path d="M33.927 40.3589C33.927 40.3589 33.2706 41.5976 33.4209 42.2015C33.519 42.6001 34.4055 41.99 35.7736 41.6773C35.8902 41.6497 36.0098 41.6282 36.1325 41.6068C36.7828 43.2746 38.0466 44.6297 38.1172 46.4877C36.0865 46.4723 35.4577 47.2112 34.743 47.0272C33.8749 46.8004 31.0712 47.2296 29.792 45.9205C28.5129 44.6113 26.4853 39.0743 26.4853 39.0743L25.8749 36.5879C25.8749 36.5879 30.562 43.2439 33.1724 41.0549C33.6019 40.6901 33.3902 40.9384 33.927 40.3589Z" fill="#E4AD8E"/>
<path d="M22.5638 50.1855C22.5638 50.1855 26.1834 59.0766 27.1619 62.2437C28.1404 65.4107 30.2539 71.7387 30.2539 71.7387C30.2539 71.7387 40.3582 67.3974 45.8613 68.7556C51.3644 70.1108 51.2908 65.7112 51.2908 65.7112C51.2908 65.7112 52.8613 58.5094 47.5147 55.6367C43.8951 53.7757 43.9748 53.9106 43.9748 53.9106C43.9748 53.9106 43.2233 48.0149 40.2079 46.764C37.1957 45.5131 36.3153 46.9817 34.9012 46.9602C33.4871 46.9357 23.0791 46.7211 23.0791 46.7211L22.5638 50.1855Z" fill="#FBF2E4"/>
<path d="M51.5311 62.6762C51.5311 62.6762 65.0863 58.85 68.4605 60.0733C71.8348 61.2966 86.252 74.7865 86.252 74.7865L83.9513 77.8524C83.9513 77.8524 74.4421 76.0129 70.9145 72.6404C67.3869 69.2679 65.5464 70.8377 63.3992 71.739C61.252 72.6404 53.1599 73.2536 51.5311 72.6404C49.9023 72.0272 45.8624 68.2715 45.8624 68.2715L51.5311 62.6762Z" fill="#82AA8E"/>
<path d="M30.2559 71.7385C30.2559 71.7385 38.0442 68.041 43.1485 68.041C48.4338 68.041 53.8878 70.7973 56.0381 71.7385C58.1884 72.6797 63.0933 84.9034 64.3203 87.9693C61.4062 88.8891 59.8725 89.6555 59.8725 89.6555C59.8725 89.6555 55.1179 83.8304 53.4307 80.6112C51.7436 77.392 51.4215 79.8447 47.2896 80.7645C43.1547 81.6842 32.9154 79.86 30.2559 71.7385Z" fill="#82AA8E"/>
<path d="M64.3181 87.9688C64.3181 87.9688 64.5727 88.8364 65.4439 89.655C66.312 90.4736 66.4654 90.9825 66.9255 91.5957C67.3856 92.2089 68.0513 93.1808 68.8672 93.9963C69.7077 94.8363 69.6823 94.9273 70.9338 95.6795C72.185 96.4316 72.8334 100.02 68.8673 99.2359C67.109 98.8885 64.9532 97.2901 63.5482 95.6795C62.7813 94.3519 61.2997 93.6345 61.0942 92.4603C60.8887 91.286 59.8672 89.6489 59.8672 89.6489L62.0325 88.6729L64.3181 87.9688Z" fill="#E4AD8E"/>
<path d="M24.841 42.6953C24.841 42.6953 21.1171 44.2283 20.9146 46.2732C20.7091 48.3182 26.0496 60.2751 30.7429 60.0697C35.4361 59.8643 34.2091 57.3104 33.7981 56.0841C33.3901 54.8577 24.841 42.6953 24.841 42.6953Z" fill="#E4AD8E"/>
<path d="M24.8402 27.8016C24.8402 27.8016 26.1807 27.0352 28.3985 27.0352C30.6132 27.0352 35.7144 30.098 35.7144 35.2364C35.7144 40.3718 37.5917 41.9814 38.2083 42.4811C38.8218 42.9778 40.1255 44.2041 39.6653 46.6201C38.5549 46.6569 37.3494 47.9783 36.3525 46.1019C35.3555 44.2256 34.5703 44.71 34.1746 43.1372C33.7788 41.5675 34.7788 38.6334 34.6255 36.7448C34.4721 34.8593 33.2175 32.2809 31.1561 31.4439C29.5212 30.7786 27.239 31.0208 27.239 31.0208C27.239 31.0208 26.8433 34.6416 27.4169 36.8736C28.2451 40.0959 29.6224 42.5976 31.5212 44.6855C33.2267 46.5588 33.65 49.0697 32.6684 51.2925C31.6868 53.5153 26.6991 50.2194 24.8402 45.1607C22.9844 40.102 21.1807 35.6932 21.8709 32.2472C22.561 28.8011 24.8402 27.8016 24.8402 27.8016Z" fill="#48391E"/>
<path d="M35.7607 58.0921C35.7607 58.0921 40.457 61.4308 43.9232 61.8171C47.3926 62.2034 47.8527 61.8509 47.8527 61.8509C47.8527 61.8509 50.368 61.0905 50.6042 61.207C51.184 61.4922 49.4938 62.5162 49.2514 62.694C49.0091 62.8749 49.7944 62.8473 50.6226 61.7343C51.4508 60.6245 51.9294 59.7752 52.1962 59.9745C52.4631 60.1738 51.8619 61.9367 51.3097 62.3659C50.7576 62.7982 49.23 63.8927 49.4999 63.9479C49.7699 64.0062 52.4478 61.8447 52.6073 61.5627C52.7668 61.2806 53.1625 60.7042 53.4232 61.1273C53.684 61.5504 52.2852 63.2918 51.3619 63.905C50.4386 64.5182 49.6656 64.9443 49.776 65.1007C49.8864 65.2571 52.0153 62.7461 52.5091 62.8473C53.003 62.9484 51.6564 65.8396 50.5551 66.1768C49.4539 66.5141 45.5214 66.2473 44.2791 65.582C43.3251 65.0731 35.3926 63.1416 30.7361 61.207C28.003 60.0726 25.5981 56.4488 25.5981 56.4488L32.9018 54.7227C32.9079 54.7227 34.23 56.9301 35.7607 58.0921Z" fill="#E4AD8E"/>
<path d="M45.9875 53.6621C46.0212 53.6836 46.0519 53.7112 46.0887 53.7296C47.8218 54.7106 52.1071 56.9028 53.3679 60.0729C54.509 62.9395 50.8372 68.9517 50.0826 68.7248C49.328 68.498 51.1378 66.3886 51.1378 66.3886C51.1378 66.3886 48.6501 69.0375 48.1961 68.731C47.8341 68.4857 49.7513 66.4009 50.5212 65.5854C50.7145 65.3861 50.8341 65.2604 50.8341 65.2604C50.8341 65.2604 50.7114 65.3861 50.5212 65.5854C49.6991 66.4285 47.5182 68.5807 47.2145 67.9737C46.8372 67.2195 50.4568 64.1291 50.4568 64.1291C50.4568 64.1291 48.0427 66.0882 47.7421 65.6375C47.4998 65.2757 49.6715 63.0345 50.5488 62.1516C50.7636 61.9615 50.9077 61.7928 50.9077 61.7928C50.9077 61.7928 50.7666 61.9308 50.5488 62.1516C50.2022 62.4612 49.6685 62.8383 49.2482 62.6973C48.5703 62.4704 50.5304 61.2655 50.604 60.588C50.6807 59.9104 50.3034 57.8011 48.7942 56.5931C47.285 55.3882 43.9629 53.9135 43.9629 53.9135C43.9629 53.9135 43.9629 53.9074 43.9599 53.9012C44.4813 53.472 45.3556 53.9503 45.9875 53.6621Z" fill="#E4AD8E"/>
<path d="M10.8871 19.1338C15.1264 19.1338 15.7306 22.8834 15.7705 24.5359C15.8104 26.1853 16.5129 34.4387 16.7613 36.0912C17.0098 37.7407 18.7031 38.8137 19.7337 40.0033C20.7644 41.1898 23.154 43.5873 24.0681 44.55C24.3902 44.8873 24.6478 45.1141 24.884 45.2797C25.5435 47.0181 26.5681 48.5449 27.6693 49.7007C28.154 50.5561 28.746 51.577 28.4883 51.7334C28.0742 51.9817 26.3902 48.7196 26.3902 48.7196C26.3902 48.7196 27.9515 51.9787 27.8687 52.227C27.7859 52.4753 27.4116 52.2147 27.4116 52.2147L25.6018 48.6767C25.6018 48.6767 25.8932 49.5505 26.3902 50.5745C27.2184 52.2761 26.3902 52.0001 26.3902 52.0001L25.019 48.8423C25.019 48.8423 25.6018 50.3292 25.8748 51.387C25.1202 52.2914 24.5711 48.4253 23.0773 46.7237C21.5803 45.0222 13.6754 40.316 12.1018 38.1392C10.5282 35.9594 11.1325 33.7826 9.55887 28.8373C7.97911 23.889 9.07728 19.1338 10.8871 19.1338Z" fill="#D39572"/>
</svg>
