<svg width="92" height="98" viewBox="0 0 92 98" fill="none" xmlns="http://www.w3.org/2000/svg">
<path d="M44.5342 82.9716C46.0519 78.7085 50.4267 79.1323 62.908 71.4874C67.1658 68.879 74.3578 64.1712 82.3808 62.4312C83.6064 62.1653 85.8428 61.7529 87.9043 62.8936C90.5048 64.3323 91.6776 67.6062 91.6904 70.0632C91.7161 74.7806 87.4792 78.1495 83.576 81.1623C76.299 86.782 73.4786 85.4834 62.2695 91.5348C55.0326 95.4419 51.3556 97.5637 49.4497 95.2082C46.753 91.8716 42.6588 88.2368 44.5342 82.9716Z" fill="#A55548"/>
<path d="M44.5351 82.9716C46.0528 78.7085 50.4276 79.1323 62.9089 71.4874C67.1667 68.879 74.3587 64.1712 82.3817 62.4312C83.6073 62.1653 85.8437 61.7529 87.9052 62.8936C90.5057 64.3323 91.6784 67.6062 91.6913 70.0632C91.717 74.7806 87.48 78.1495 83.5768 81.1623C76.2998 86.782 73.4795 85.4834 62.2704 91.5348C55.0335 95.4419 51.2282 97.6072 49.356 95.1583C46.749 91.7491 42.6597 88.2368 44.5351 82.9716Z" fill="#82AA8E"/>
<path d="M56.3843 75.4143C54.0693 71.5298 44.2222 77.918 30.4976 72.8606C25.8148 71.1351 17.8479 67.9241 9.64203 67.7855C8.38908 67.7646 6.11422 67.7984 4.31261 69.3193C2.04096 71.2382 1.52598 74.6796 1.98962 77.0931C2.87999 81.7251 10.2982 83.267 14.7099 85.4597C22.9367 89.5488 23.142 84.5204 35.3105 88.2631C43.1666 90.6798 48.8137 94.8382 51.4704 94.5836C55.7313 94.1728 59.2447 80.2122 56.3843 75.4143Z" fill="#82AA8E"/>
<path d="M54.4185 76.4024C52.2238 72.721 42.8901 78.7756 29.881 73.9809C25.442 72.3456 17.8907 69.3021 10.1131 69.17C8.92435 69.1507 6.76981 69.1813 5.06285 70.6233C2.90991 72.4422 2.38692 75.7112 2.86018 77.991C3.54681 81.3019 8.38692 83.804 12.7891 85.362C20.9532 88.2508 22.2046 87.711 33.7377 91.2587C41.1848 93.5498 47.7752 94.9853 49.7612 94.5697C53.7318 93.7383 57.1281 80.9491 54.4185 76.4024Z" fill="#82AA8E"/>
<path d="M44.2591 82.1166C45.7446 77.9453 50.0248 78.3594 62.2398 70.8773C66.4077 68.3252 73.4457 63.7173 81.297 62.0144C82.4954 61.755 84.6852 61.3506 86.7034 62.4671C89.2478 63.8752 90.3965 67.0782 90.4093 69.4836C90.4334 74.0995 86.2879 77.3959 82.4681 80.3459C75.3468 85.8448 72.5858 84.5752 61.6173 90.4961C54.5345 94.3194 51.8473 97.2984 49.6847 95.5019C47.4419 93.6443 42.4238 87.269 44.2591 82.1166Z" fill="#82AA8E"/>
<path d="M59.8181 59.8945C60.3251 60.1475 58.8315 64.2076 58.7497 64.6249C57.8481 69.2537 61.1866 74.9458 55.1593 75.666C50.3609 76.2396 45.5256 76.7116 40.7032 76.4055C37.9695 76.2315 35.2422 75.8013 32.6144 75.0135C30.978 74.5221 28.477 73.557 28.7673 71.1677C29.8294 62.4305 28.7577 60.9289 28.7673 58.7941C28.777 56.7448 31.3262 58.1658 32.3465 58.277C35.1508 58.5831 37.9807 58.3382 40.7738 58.0321C48.2288 57.212 52.8925 56.4676 59.8181 59.8945Z" fill="#FBF2E4"/>
<path d="M33.473 9.55352C32.3276 10.1513 35.1014 14.0067 33.8581 20.5737C33.0543 24.8143 31.1998 26.9007 32.318 28.3072C33.364 29.6235 36.765 30.2599 38.6212 29.2014C41.7078 27.4404 42.8805 25.9936 42.9383 25.2783C43.4934 18.3842 35.0356 8.73667 33.473 9.55352Z" fill="#2E2E44"/>
<path d="M35.0596 12.4279C35.0291 12.1057 35.3981 11.081 35.4286 10.7572C35.8393 6.29269 41.0821 5.90924 44.6372 6.87593C50.212 8.3904 52.4885 14.1969 52.5896 19.4879C52.612 20.6206 52.58 21.7999 53.0612 22.823C53.5393 23.8396 54.5436 24.6984 55.5607 25.1495C56.4366 25.5378 57.7505 25.3847 58.3923 26.1951C58.8607 26.7848 58.7195 27.6339 58.5928 28.3782C58.0505 31.5377 62.2682 34.9033 62.4447 38.0741C62.6083 41.0128 58.8511 47.0932 58.8944 50.0368C58.9281 52.2489 60.2388 57.593 59.1094 59.5602C57.8259 61.8062 56.9853 59.0044 55.0313 58.8594C48.0832 58.3454 41.1719 60.5624 35.8746 61.1794C32.9869 61.5162 24.9655 62.362 23.8425 57.8927C22.5864 52.8998 29.0725 34.9501 32.8906 31.9839C37.6377 28.2944 40.1099 27.5372 40.1099 27.5372C40.4019 27.3777 41.5393 26.2563 41.5842 25.5394C41.6259 24.8804 39.6206 24.0894 38.7623 23.2838C36.3318 21.004 36.8147 20.1695 36.1313 17.0744C35.934 16.1642 35.1479 13.3447 35.0596 12.4279Z" fill="#C19E84"/>
<path d="M59.559 26.5681C57.6788 26.0654 55.4473 28.8124 52.2435 32.7549C48.2922 37.6189 46.8532 41.94 46.3398 43.7106C45.512 46.5624 45.0981 47.9866 45.4414 49.253C46.3799 52.7089 49.9558 52.6686 57.1205 58.5331C58.7296 59.8494 61.1553 63.4616 61.0141 62.7865C58.9815 53.1197 62.8574 44.9142 62.7676 41.6468C62.5847 34.8945 62.3794 27.3221 59.559 26.5681Z" fill="#FBF2E4"/>
<path d="M38.8623 9.45773C38.2912 10.0055 37.8484 10.0474 36.2634 11.2944C35.6938 11.7423 35.4051 11.9711 35.2045 12.2289C34.1874 13.5323 34.5131 15.0419 34.2099 15.0967C33.8569 15.1612 33.0917 13.7095 32.8623 12.0356C32.8126 11.6698 32.6168 10.0506 33.3757 7.91103C33.7094 6.97013 34.6815 4.34397 37.3222 2.69094C39.2874 1.46164 41.973 0.899349 42.4238 1.62759C42.7912 2.22048 41.2944 3.04861 40.2099 5.881C39.4334 7.9062 39.7832 8.5716 38.8623 9.45773Z" fill="#2E2E44"/>
<path d="M41.2378 1.73513C39.8918 2.48109 39.1586 3.62338 37.8624 5.64053C37.2431 6.604 35.9148 8.41653 37.5977 9.06743C38.1816 9.29299 38.8282 9.23177 39.4522 9.28171C41.4271 9.43961 43.1132 10.6947 44.8314 11.6839C46.6715 12.7441 49.5528 13.279 51.441 12.0464C54.011 10.3708 52.8544 6.49605 51.4201 4.45473C49.1758 1.26628 44.3501 0.00798422 41.2378 1.73513Z" fill="#2E2E44"/>
<path d="M40.3398 49.4249C40.2323 48.4131 39.7575 47.7332 39.7575 47.7332C39.4029 47.2273 38.973 46.9389 38.519 46.6408C37.8564 46.2074 37.0559 46.346 36.4591 46.0624C35.1612 45.4454 35.4692 44.7719 34.6366 44.3434C33.0115 43.5072 31.1938 44.0034 30.8666 44.092C28.2163 44.8154 27.1174 47.2257 26.9826 47.535C26.827 47.8927 25.8933 50.129 26.9425 52.3974C27.8425 54.3421 29.6441 55.1106 31.027 55.6987C32.1612 56.182 33.2281 56.6364 34.5724 56.4946C38.304 56.1031 40.5596 51.5081 40.3398 49.4249Z" fill="#E3C1A8"/>
<path opacity="0.25" d="M37.9453 40.4363C39.6827 40.7183 41.3143 41.6882 42.4726 43.0077C43.2378 43.8794 43.8234 44.9057 44.2164 45.9964C44.4138 46.5426 44.563 47.1081 44.6624 47.68C44.8084 48.5162 44.7843 49.3927 44.6544 50.2289C44.6287 50.3916 44.5565 50.6768 44.4362 50.3948C43.91 49.1607 43.395 47.9217 42.8368 46.7037C42.3715 45.6887 41.8758 44.6865 41.125 43.8487C39.9827 42.5743 38.4523 41.7688 36.7918 41.4143C36.1501 41.2774 35.494 41.171 34.8362 41.1904C34.3565 41.2033 33.8801 41.2886 33.4004 41.3209C34.7303 40.467 36.386 40.1818 37.9453 40.4363Z" fill="#010101"/>
<path opacity="0.25" d="M28.7275 46.4626C28.4435 46.1581 29.2922 43.9895 30.2547 42.9938C30.8628 42.3655 31.4114 41.9627 31.3328 42.1077C30.7376 43.1984 30.7376 43.5384 29.7927 45.3155C29.4638 45.9342 28.9136 46.664 28.7275 46.4626Z" fill="#010101"/>
<path d="M62.4687 60.3426C61.5495 58.3464 58.5382 56.0489 52.5511 51.5345C49.4067 49.1629 47.1366 47.6065 43.9361 47.1957C42.8869 47.0603 40.3938 46.7735 39.2227 48.1704C38.6356 48.8729 38.9741 49.2918 38.3291 50.9351C37.5414 52.941 36.2436 54.3395 35.8168 54.7906C34.5126 56.1713 33.8323 56.2535 33.7489 56.9705C33.6094 58.1836 34.4933 58.4994 35.573 59.7996C37.3634 61.9585 38.589 62.3436 43.9874 66.5036C48.3142 69.837 51.3944 71.3869 53.7815 71.9396C56.8329 72.6452 60.2901 73.802 62.65 70.4025C65.3275 66.5487 62.9275 61.3399 62.4687 60.3426Z" fill="#C4005B"/>
<path d="M66.0842 64.2981C66.3088 60.6118 66.1163 58.9684 65.635 48.8182C65.2339 40.3549 60.474 37.711 62.0735 35.5747C64.0066 32.9936 71.4842 33.9281 73.4318 37.4114C73.982 38.3958 72.3136 38.7277 73.2393 44.5648C73.8986 48.7264 74.2066 54.9631 73.8168 58.68C73.5393 61.3255 73.2505 64.0467 72.2542 65.0134C68.5532 68.6047 65.9991 65.6756 66.0842 64.2981Z" fill="#C19E84"/>
<path d="M51.5673 7.71684C51.9299 7.70073 53.3978 12.4439 53.6882 13.1158C55.27 16.7731 57.3604 19.8697 60.8272 21.9883C64.4577 24.2069 68.8133 24.9802 72.3091 27.4437C76.862 30.6498 80.7042 36.4644 78.8369 42.2517C78.1438 44.4025 76.6438 46.2006 74.9898 47.7344C71.8984 50.6022 68.5502 53.1462 65.8807 56.4426C62.8968 53.1704 61.7545 48.6447 60.9572 44.2817C60.2657 40.5052 59.746 36.6127 58.1433 33.0875C56.6545 29.8104 53.2679 27.8126 51.8577 24.4405C51.4502 23.4657 51.0588 22.1591 50.8952 18.2537C50.6914 13.4283 50.9625 7.74262 51.5673 7.71684Z" fill="#2E2E44"/>
<path d="M50.1041 13.8232C50.3159 13.1626 50.4715 12.436 51.0972 12.0461C51.5127 11.7867 51.9362 11.7996 52.3196 12.1089C53.3945 12.9741 53.1956 14.6577 52.379 15.6035C51.5464 16.5686 50.5742 17.4128 49.6758 18.3183" fill="#C19E84"/>
<path d="M45.4915 28.361C45.2861 26.5646 40.4637 26.7192 33.7225 27.0173C31.9722 27.0946 29.3925 29.8916 28.7653 30.7519C26.6958 33.594 25.8647 34.2964 22.2599 39.2217C16.7829 46.7054 15.4979 48.4487 15.4867 51.2215C15.4835 52.0093 15.4738 54.3825 17.0444 56.1983C17.861 57.1424 18.7754 57.5565 19.5214 57.8948C28.353 61.9098 27.5123 61.9275 29.2738 62.3448C32.4952 63.1069 33.6728 62.6606 36.8268 63.9575C37.961 64.4248 37.945 64.5375 39.5284 65.2255C41.2867 65.9892 42.2332 66.2518 46.4332 67.5246C51.4995 69.0616 52.4524 69.3871 54.015 69.023C54.169 68.9875 54.0214 69.0165 56.6893 67.9258C60.3792 66.4194 61.746 65.9199 61.7524 65.1788C61.7556 64.7921 61.3963 64.4441 61.1236 64.2991C60.5974 64.0188 59.999 64.2862 59.3941 64.4795C59.3941 64.4795 58.5423 64.7518 56.4038 64.8936C55.3706 64.9629 54.4754 64.7567 52.6851 64.3442C51.5909 64.0913 48.9744 63.4887 49.0193 63.0811C49.0498 62.8168 50.1968 62.7266 50.7327 62.7153C51.6198 62.696 51.8877 62.8684 53.415 63.0714C54.7241 63.2454 55.1877 63.2084 55.3722 63.189C55.7829 63.1471 57.1819 63.0054 57.3118 62.3947C57.4048 61.9533 56.7888 61.4973 56.7535 61.4715C56.2562 61.1123 55.7476 61.1767 55.0209 61.167C55.0209 61.167 53.7214 61.1493 52.1685 60.7691C50.9204 60.463 50.9909 60.1859 49.9658 59.9265C48.7369 59.6139 47.7375 59.7863 46.3931 60.0167C44.2177 60.3889 43.8856 60.9093 42.5252 60.8206C41.415 60.7481 40.6289 60.3373 40.0113 60.0215C35.6813 57.8175 36.1626 58.6279 32.022 56.3675C27.177 53.7236 25.9145 53.7042 25.2776 52.172C24.4738 50.2387 25.9032 48.4954 26.7631 46.9133C27.6808 45.2248 28.5888 43.5315 29.5899 41.8897C31.2038 39.241 33.0407 36.6938 35.3171 34.5735C37.7701 32.289 40.9241 31.2562 43.9177 29.8835C44.5032 29.6161 45.5845 29.1794 45.4915 28.361Z" fill="#C19E84"/>
<path d="M46.8945 88.1832C46.6539 87.5984 46.2095 87.1086 45.51 87.1956C44.7673 87.2874 44.0566 87.5871 43.3459 87.8562C39.7667 89.2031 35.979 89.7638 32.2443 89.5447C31.5961 89.506 30.9191 89.4512 30.3127 89.7315C28.171 90.7272 29.1673 95.2046 30.5421 96.3276C31.2432 96.9011 32.1416 97.1412 33.0272 97.1605C35.2763 97.2088 37.3619 96.0939 39.4892 95.4108C41.0261 94.9178 42.5999 94.5988 44.132 94.0832C45.1908 93.7256 46.2753 93.2599 47.087 92.4657C47.8844 91.6859 47.8796 91.1928 47.5988 90.1166C47.3983 89.3433 47.1512 88.8051 46.8945 88.1832Z" fill="#C19E84"/>
<path opacity="0.25" d="M27.1141 46.3174C26.6826 46.8362 26.4146 46.9006 25.8114 48.5698C25.2868 50.0182 24.8633 50.9027 24.8793 51.2217C24.8986 51.5874 25.4874 52.6653 27.3243 54.2023C29.4211 55.9568 30.09 55.6233 30.5104 55.3204C30.974 54.9853 30.3371 52.5557 27.1141 46.3174Z" fill="#010101"/>
<path d="M30.9605 47.4304C31.4354 46.9455 31.9824 46.5298 32.5231 46.1157C33.1102 45.6662 36.1054 43.6974 33.9717 43.2447C29.5808 42.3134 25.591 46.3397 26.0659 50.7043C26.252 52.4137 27.1183 54.028 28.4033 55.1591C29.2199 55.8792 30.2225 56.5704 31.283 56.8556C31.9295 57.0296 32.6578 57.0054 33.2177 56.6381C34.0712 56.0774 34.2862 54.8336 33.8899 53.8895C33.4937 52.9454 32.6209 52.28 31.6921 51.8594C31.1803 51.6274 30.63 51.4502 30.2017 51.0861C29.2359 50.2644 29.7974 48.9288 30.4215 48.0684C30.5835 47.8396 30.7664 47.6302 30.9605 47.4304Z" fill="#2E2E44"/>
<path d="M72.4381 64.8078C69.8183 68.2605 69.2937 69.1563 65.4177 72C63.2921 73.5579 61.2274 75.6637 58.2161 75.3753C57.8151 75.3366 57.8103 75.2947 56.5092 74.9645C53.7177 74.2555 52.8274 74.2153 52.5835 73.6272C52.4472 73.2985 52.7022 72.7024 53.5381 72.4382C54.8696 72.0193 55.5947 72.3657 55.8755 72.4221C56.2557 72.4978 56.7161 72.5719 57.8776 72.6557C58.7792 72.7217 60.0835 72.4817 60.6611 72.1482C62.0488 71.3474 62.4033 70.3195 62.1659 69.9264C62.0038 69.6574 61.0252 69.7991 60.3659 70.0344C58.8963 70.5596 58.707 70.7175 57.9001 71.138C57.4172 71.3893 55.5963 72.5606 55.7423 71.2041C55.7857 70.8093 55.9541 70.4404 56.2124 70.1423C56.4867 69.8265 56.8573 69.6719 57.2231 69.4882C59.0135 68.594 58.545 68.2122 60.2664 67.3615C61.2739 66.8636 62.9552 66.3142 63.884 65.6923C66.3707 64.028 66.9611 62.8696 68.06 60.6543" fill="#C19E84"/>
</svg>
