<svg width="120" height="91" viewBox="0 0 120 91" fill="none" xmlns="http://www.w3.org/2000/svg">
<path d="M64.6329 70.3602C64.8956 69.731 64.9013 73.6354 61.7918 77.2745C59.4431 80.0228 58.7844 78.4331 57.0685 80.7466C56.7138 81.2253 55.6045 82.9997 56.5951 83.5197C57.9296 84.2205 60.1564 83.7958 62.2011 82.2734C64.676 80.431 65.6844 80.7383 66.3088 80.5694C67.104 80.3548 67.6484 79.574 67.5253 78.3119C67.3705 76.731 67.894 73.9675 68.7088 71.614L66.6134 71.3201L64.6329 70.3602Z" fill="#BF6557"/>
<path d="M55.5156 81.9532C55.4172 82.7474 56.2581 83.7639 57.566 83.8794C59.3428 84.0362 60.5168 83.3772 61.3634 82.8293C62.2099 82.2814 63.2005 81.4872 64.3415 81.1673C65.4819 80.8467 66.5715 80.799 66.9732 80.361C67.9003 79.3484 67.609 77.9663 67.472 77.4965C67.4415 77.3911 67.4187 77.332 67.4187 77.332C67.4187 77.332 65.2553 78.8646 63.9455 79.9153C62.6357 80.9654 61.2434 81.7399 59.8677 81.4758C58.4912 81.2117 59.888 79.2589 58.7374 79.3008C57.9182 79.33 56.694 80.1559 56.0131 80.9901C55.7377 81.3279 55.5511 81.6663 55.5156 81.9532Z" fill="#C4005B"/>
<path d="M56.0117 80.9908C56.0771 81.1483 56.1609 81.2949 56.2637 81.4314C57.5792 83.171 61.5397 82.3901 65.1086 79.6874C66.0167 78.9999 66.9039 78.6532 67.5632 77.8952C67.5328 77.7898 67.4756 76.7207 67.4756 76.7207C67.4756 76.7207 65.2539 78.864 63.9441 79.9154C62.6343 80.9654 61.6552 81.4924 60.287 81.1914C59.349 80.9857 59.8865 79.2589 58.736 79.3008C57.9168 79.3306 56.6926 80.1566 56.0117 80.9908Z" fill="#C4005B"/>
<path d="M90.9045 56.3877H92.9199V48.0932H90.9045V56.3877Z" fill="#E3AB4A"/>
<path d="M90.9044 56.3877H91.9121V48.0932H90.9044V56.3877Z" fill="#E3AB4A"/>
<path d="M72.6315 69.7822C72.6315 69.7822 74.6488 77.087 69.2815 80.9565C65.6046 83.6071 64.3189 82.5532 64.3748 84.1454C64.397 84.7892 65.6973 85.1377 66.7793 85.3638C68.9267 85.8126 70.2917 85.7148 71.9112 84.6489C74.7294 82.7938 75.3475 83.0922 76.2785 82.2847C77.2653 81.4289 77.2437 80.7089 76.9074 79.0945C76.3172 76.2642 77.0019 76.4293 76.8344 71.8443L76.4479 71.0805L72.6315 69.7822Z" fill="#BF6557"/>
<path d="M69.3739 79.539L76.8837 58.1377L73.8751 57.4336L67.6833 79.113C67.585 79.4565 67.8725 79.8234 68.3306 79.9396C68.7907 80.0564 69.2546 79.8787 69.3739 79.539Z" fill="#E3AB4A"/>
<path d="M79.373 59.153L107.89 58.5772L117.032 25.8594L89.7823 25.9172L79.373 59.153Z" fill="#E3AB4A"/>
<path d="M105.228 44.9257C103.984 53.8259 102.118 55.121 104.249 58.5772H107.89L117.033 25.8594L101.637 25.8918C102.636 36.7461 105.976 39.5687 105.228 44.9257Z" fill="#E3AB4A"/>
<path d="M79.7387 64.107L69.584 57.6555L95.8422 55.1211L104.249 58.5773L79.7387 64.107Z" fill="#E3AB4A"/>
<path d="M79.8327 85.7103C79.8689 85.7135 79.9044 85.7154 79.9393 85.7154C80.3683 85.7154 80.7402 85.4786 80.7998 85.151L84.1061 67.0199L84.6379 64.1065L84.8689 62.838L81.7873 62.6133L81.6058 64.1065L81.251 67.0199L79.0642 84.9955C79.0211 85.3497 79.3619 85.6672 79.8327 85.7103Z" fill="#E3AB4A"/>
<path d="M104.232 64.5125L105.26 67.0202L112.785 85.3729C112.921 85.7031 113.496 85.7983 113.928 85.6059C114.291 85.4447 114.404 85.1349 114.404 84.8339C114.404 84.7749 114.395 84.7165 114.376 84.6606L108.337 67.0202L107.34 64.1068L107.03 63.2021L105.099 64.1068L104.232 64.5125Z" fill="#E3AB4A"/>
<path d="M109.598 62.2032L119.559 29.8129C120.059 28.1858 119.146 26.4615 117.52 25.9612C115.894 25.4609 114.17 26.3739 113.67 28.0004L103.709 60.3906C103.209 62.0178 104.122 63.7421 105.748 64.2424C107.375 64.7426 109.098 63.8297 109.598 62.2032Z" fill="#E3AB4A"/>
<path d="M93.9688 61.0801L94.7144 63.3681L95.356 65.3369L96.1549 67.7893L100.173 80.1146C100.271 80.4162 100.738 80.5191 101.14 80.38C101.476 80.2638 101.642 80.0201 101.663 79.7547C101.667 79.702 101.663 79.6499 101.65 79.5991L98.5695 67.7893L97.9299 65.3369L97.4736 63.5878L96.7844 60.9436L96.5706 60.1221L94.7747 60.7836L93.9688 61.0801Z" fill="#E3AB4A"/>
<path d="M81.3596 64.5676H106.239C107.94 64.5676 109.319 63.188 109.319 61.4859C109.319 59.7839 107.94 58.4043 106.239 58.4043H81.3596C79.6583 58.4043 78.2793 59.7839 78.2793 61.4859C78.2793 63.188 79.6583 64.5676 81.3596 64.5676Z" fill="#E3AB4A"/>
<path d="M71.9749 54.4301C70.6575 54.4574 96.7583 61.1432 99.065 55.6681C100.99 51.097 98.4368 49.8514 98.4368 49.8514C93.7509 49.5429 92.9475 50.6933 88.895 49.8825C88.895 49.8825 86.7558 49.4769 83.0377 48.7715C83.0377 48.7715 70.5052 48.4389 67.1075 50.0521C62.369 52.3014 63.7188 73.2082 63.7188 73.2082L68.3552 73.911C68.3552 73.911 71.999 54.4295 71.9749 54.4301Z" fill="#82AA8E"/>
<path d="M72.9241 74.1867L77.2437 74.7759C77.2437 74.7759 79.7396 64.1063 77.3008 59.5562C74.692 54.6887 97.2404 61.6018 98.8884 56.5057C100.188 52.487 91.6465 49.9107 91.6465 49.9107C91.6465 49.9107 69.9948 48.0461 70.2702 54.9566C70.425 58.8718 72.9241 74.1867 72.9241 74.1867Z" fill="#82AA8E"/>
<path d="M81.1119 33.5618C81.1119 33.5618 75.0072 45.7316 73.0818 46.2115C69.9279 46.9981 69.2945 45.9367 69.7127 44.3482C70.1309 42.7604 76.2142 31.8877 76.2142 31.8877L81.1119 33.5618Z" fill="#BF6557"/>
<path d="M101.174 34.5322C101.343 34.87 103.243 44.0692 103.199 46.1789C103.154 48.3082 99.9427 48.4301 99.9427 48.4301C99.9427 48.4301 95.6896 36.2203 95.8584 36.473C96.0272 36.7263 101.174 34.5322 101.174 34.5322Z" fill="#BF6557"/>
<path d="M96.1201 36.9348C96.1201 36.9348 95.9031 37.4859 96.169 37.4675C99.2131 37.251 100.803 36.6015 102.146 36.5018C102.146 36.5018 100.777 30.0897 97.659 26.7884C96.7807 25.8589 95.8555 24.8977 94.5203 25.0298L90.188 25.1371C89.3433 27.076 87.5081 28.4308 84.9081 28.2771L82.6979 26.5103C78.6257 27.4728 73.9043 33.29 73.9043 33.29L79.6626 37.8979L80.5028 36.0682C80.5028 36.0682 81.0416 39.0108 83.3102 40.4361L83.4061 48.8614L98.7391 56.855C102.255 52.1932 96.1201 36.9348 96.1201 36.9348Z" fill="#FBF2E4"/>
<path d="M81.6133 26.8662C81.6133 26.8662 82.6445 26.444 83.7341 26.2186L86.9953 23.2754C89.052 24.9629 89.613 25.0244 90.1854 25.1368C90.2533 25.1502 90.4144 25.9063 90.0489 26.8567C88.0246 32.1178 82.3113 29.6279 81.6133 26.8662Z" fill="#BF6557"/>
<path d="M75.2841 43.7159L76.1516 30.0345C76.2544 28.4016 76.4358 26.7808 75.2422 27.5668C74.7802 27.8709 75.3539 28.9127 74.5981 28.7095C74.5981 28.7095 73.3365 30.03 73.2515 30.3106C73.2553 30.15 67.5109 45.5011 70.3323 46.4801C72.9304 47.3828 74.704 44.9684 75.2841 43.7159Z" fill="#BF6557"/>
<path d="M100.629 43.0316L84.5558 45.9622C83.7772 46.0288 82.9433 46.1926 82.7148 46.8624L83.0562 47.9677C83.3672 48.4108 83.7905 48.4026 84.1389 48.3575C84.3445 48.3626 84.5501 48.3537 84.7544 48.3258C86.9971 48.3994 101.456 48.8921 102.695 47.402C104.214 45.5755 101.048 42.9954 100.629 43.0316Z" fill="#BF6557"/>
<path d="M84.9021 47.2871C85.3584 46.7722 83.923 46.0199 83.5777 46.1348C83.5777 46.1348 83.6926 46.077 77.9883 48.5962C77.1313 48.9739 76.0607 50.1648 75.4435 50.8233C74.7836 51.528 74.4072 51.7496 74.5031 52.0422C74.5488 52.1813 74.7937 52.0962 75.1066 51.9242C74.8965 52.5178 74.6478 53.2326 74.6509 53.2752C74.656 53.3431 74.7284 53.4669 75.0666 53.2948C74.8984 53.764 74.7956 54.1183 74.8534 54.1506C75.052 54.2636 75.6771 54.1144 75.9315 53.4059C76.0826 52.9853 77.2294 50.9534 76.7368 52.1502C76.7368 52.1502 76.2888 53.731 76.2603 53.7996C76.1663 54.0249 76.4722 54.1024 76.9025 53.8465C77.3321 53.5907 77.4565 52.9679 77.5986 52.6854C77.7947 52.2968 78.3874 51.2061 78.6793 51.1103C78.7923 51.0728 79.2257 50.9592 79.6629 50.8785C81.9614 50.4538 83.7618 48.5746 84.9021 47.2871Z" fill="#BF6557"/>
<path d="M67.9937 86.1073C70.7492 86.0927 72.9671 84.1798 73.9926 83.7665C75.3855 83.2053 76.9371 82.6282 77.2398 81.9216C77.4923 81.3312 77.427 80.5776 77.2778 79.9268C77.0964 79.1294 76.7898 78.4863 76.7898 78.4863C76.6807 78.7593 76.2187 79.7408 74.3384 80.9604C71.7417 82.6453 72.0317 82.0765 70.8786 83.1875C70.5226 83.5316 69.7903 83.6884 68.9621 83.4173C68.141 83.1481 68.0052 81.9502 67.1275 82.2555C66.7062 82.4028 65.4173 82.5761 64.7275 83.1831C64.5384 83.3488 64.3943 83.5468 64.3252 83.7849C64.0015 84.8966 66.0354 86.1181 67.9937 86.1073Z" fill="#C4005B"/>
<path d="M81.252 67.0198H84.107L84.6388 64.1064H81.6073L81.252 67.0198Z" fill="#E3AB4A"/>
<path d="M64.7266 83.1831C65.3516 84.7347 68.6071 85.0102 72.0599 83.7887C74.6992 82.8555 76.6994 81.3159 77.2769 79.9268C77.0954 79.1294 76.7889 78.4863 76.7889 78.4863C76.6798 78.7593 76.2178 79.7408 74.3375 80.9604C71.7407 82.6453 72.0307 82.0765 70.8777 83.1875C70.5217 83.5316 69.7893 83.6884 68.9612 83.4173C68.14 83.1481 68.0658 81.9457 67.131 82.1946C66.7001 82.3101 65.417 82.5761 64.7266 83.1831Z" fill="#C4005B"/>
<path d="M86.8771 27.9811L86.8797 27.9798C87.8658 27.4669 88.444 24.8017 87.8925 24.2595C87.8925 24.2595 84.9017 21.1645 83.9809 18.7717C83.9022 18.5667 81.3086 22.3435 81.3086 22.3435L82.2827 25.3134C82.2827 25.3134 83.0125 26.4879 81.8207 26.9958C81.1969 27.5494 85.891 28.4941 86.8771 27.9811Z" fill="#BF6557"/>
<path d="M83.7923 25.5207C83.7923 25.5207 86.3047 23.7063 84.1756 19.5117L82.5485 17.1944C80.7476 15.3127 77.6812 15.0511 75.5027 16.79C73.3241 18.5289 74.217 21.3934 76.0179 23.2752C76.0173 23.2746 80.066 28.3922 83.7923 25.5207Z" fill="#BF6557"/>
<path d="M77.7416 17.5104C75.075 19.2829 74.2215 22.0674 73.5133 20.0714C72.8559 18.2182 73.3845 14.3481 77.5296 13.265C80.4323 12.5063 84.8579 13.6694 85.2177 17.9503C85.4887 21.1678 81.8303 14.7925 77.7416 17.5104Z" fill="#040E34"/>
<path d="M75.668 15.0094C76.4172 14.782 76.8333 13.9669 76.5974 13.1889C76.3615 12.4108 75.5628 11.9644 74.8136 12.1918C74.0644 12.4192 73.6483 13.2343 73.8842 14.0123C74.1202 14.7904 74.9188 15.2368 75.668 15.0094Z" fill="#040E34"/>
<path d="M77.2597 13.9756C78.009 13.7483 78.4252 12.9333 78.1893 12.1551C77.9535 11.377 77.1548 10.9304 76.4055 11.1577C75.6563 11.3851 75.24 12.2001 75.4759 12.9783C75.7118 13.7564 76.5104 14.203 77.2597 13.9756Z" fill="#040E34"/>
<path d="M79.1153 13.4977C79.8645 13.2703 80.2806 12.4552 80.0447 11.6771C79.8087 10.8991 79.0101 10.4527 78.2609 10.6801C77.5117 10.9075 77.0956 11.7225 77.3315 12.5006C77.5675 13.2787 78.3661 13.7251 79.1153 13.4977Z" fill="#040E34"/>
<path d="M81.1212 13.4947C81.8704 13.2673 82.2865 12.4523 82.0505 11.6742C81.8146 10.8962 81.016 10.4497 80.2667 10.6771C79.5175 10.9045 79.1014 11.7196 79.3374 12.4977C79.5733 13.2757 80.3719 13.7221 81.1212 13.4947Z" fill="#040E34"/>
<path d="M74.0255 16.4537C74.7747 16.2263 75.1908 15.4113 74.9548 14.6332C74.7189 13.8551 73.9202 13.4087 73.171 13.6361C72.4218 13.8635 72.0057 14.6786 72.2417 15.4567C72.4776 16.2347 73.2762 16.6811 74.0255 16.4537Z" fill="#040E34"/>
<path d="M73.0684 18.4606C73.8176 18.2332 74.2337 17.4181 73.9978 16.64C73.7618 15.862 72.9632 15.4156 72.214 15.643C71.4648 15.8704 71.0487 16.6854 71.2846 17.4635C71.5206 18.2415 72.3192 18.688 73.0684 18.4606Z" fill="#040E34"/>
<path d="M73.8499 21.738C74.4516 21.5554 74.7858 20.9007 74.5963 20.2755C74.4068 19.6504 73.7654 19.2916 73.1637 19.4742C72.562 19.6567 72.2278 20.3115 72.4173 20.9366C72.6068 21.5617 73.2482 21.9205 73.8499 21.738Z" fill="#040E34"/>
<path d="M75.1938 21.8992C75.818 21.7098 76.1645 21.0304 75.9678 20.3819C75.7711 19.7333 75.1058 19.3611 74.4816 19.5506C73.8575 19.74 73.511 20.4193 73.7077 21.0679C73.9043 21.7164 74.5697 22.0886 75.1938 21.8992Z" fill="#040E34"/>
<path d="M73.0079 20.5035C73.7571 20.2761 74.1732 19.4611 73.9372 18.683C73.7013 17.9049 72.9027 17.4585 72.1535 17.6859C71.4042 17.9133 70.9881 18.7284 71.2241 19.5065C71.46 20.2845 72.2587 20.7309 73.0079 20.5035Z" fill="#040E34"/>
<path d="M82.8105 13.9307C83.5598 13.7034 83.976 12.8883 83.7401 12.1102C83.5042 11.332 82.7056 10.8855 81.9563 11.1128C81.207 11.3401 80.7908 12.1552 81.0267 12.9334C81.2625 13.7115 82.0612 14.158 82.8105 13.9307Z" fill="#040E34"/>
<path d="M84.498 14.9766C85.2473 14.7493 85.6635 13.9342 85.4276 13.1561C85.1917 12.3779 84.3931 11.9314 83.6438 12.1587C82.8945 12.386 82.4783 13.2011 82.7142 13.9793C82.95 14.7574 83.7487 15.2039 84.498 14.9766Z" fill="#040E34"/>
<path d="M85.7559 16.8736C86.5051 16.6463 86.9212 15.8312 86.6853 15.0531C86.4493 14.2751 85.6507 13.8286 84.9015 14.056C84.1523 14.2834 83.7362 15.0985 83.9721 15.8766C84.2081 16.6546 85.0067 17.101 85.7559 16.8736Z" fill="#040E34"/>
<path d="M85.4903 16.161C84.876 16.3813 84.5619 17.0783 84.7884 17.717C85.015 18.3557 85.6965 18.6947 86.3108 18.4738C86.9251 18.2535 87.2392 17.5564 87.0127 16.9177C86.7855 16.2797 86.1039 15.9407 85.4903 16.161Z" fill="#040E34"/>
<path d="M76.4434 20.3385C77.1926 20.1111 77.6087 19.296 77.3728 18.518C77.1369 17.7399 76.3382 17.2935 75.589 17.5209C74.8398 17.7483 74.4237 18.5634 74.6596 19.3414C74.8956 20.1195 75.6942 20.5659 76.4434 20.3385Z" fill="#040E34"/>
<path d="M77.959 18.7965C78.7083 18.5691 79.1244 17.754 78.8884 16.976C78.6525 16.1979 77.8538 15.7515 77.1046 15.9789C76.3554 16.2063 75.9393 17.0214 76.1753 17.7994C76.4112 18.5775 77.2098 19.0239 77.959 18.7965Z" fill="#040E34"/>
<path d="M79.9999 18.0479C80.7492 17.8206 81.1654 17.0055 80.9296 16.2274C80.6937 15.4492 79.8951 15.0027 79.1458 15.23C78.3965 15.4573 77.9803 16.2724 78.2161 17.0505C78.452 17.8287 79.2506 18.2752 79.9999 18.0479Z" fill="#040E34"/>
<path d="M85.399 17.7772C84.9021 17.9556 84.6476 18.5193 84.831 19.0361C85.0144 19.5529 85.5659 19.8272 86.0628 19.6488C86.5597 19.4704 86.8141 18.9066 86.6307 18.3898C86.4467 17.8724 85.8959 17.5988 85.399 17.7772Z" fill="#040E34"/>
<path d="M84.7126 18.8917C84.2855 19.0447 84.0672 19.5291 84.2253 19.9729C84.3833 20.4167 84.856 20.6522 85.2831 20.4992C85.7102 20.3462 85.9285 19.8618 85.7705 19.418C85.6125 18.9736 85.1391 18.7381 84.7126 18.8917Z" fill="#040E34"/>
<path d="M82.1336 18.0904C82.8222 17.8815 83.2046 17.1322 82.9878 16.4168C82.7709 15.7014 82.0369 15.2908 81.3484 15.4997C80.6598 15.7086 80.2773 16.4579 80.4942 17.1733C80.711 17.8887 81.445 18.2993 82.1336 18.0904Z" fill="#040E34"/>
<path d="M84.3339 19.5768C84.7986 19.2722 84.814 18.4737 84.3685 17.7933C83.9229 17.1128 83.185 16.8081 82.7203 17.1126C82.2556 17.4172 82.2401 18.2157 82.6857 18.8961C83.1313 19.5766 83.8692 19.8813 84.3339 19.5768Z" fill="#BF6557"/>
<path d="M72.4327 21.0864C72.83 20.5861 73.6848 19.2167 73.7298 19.1938C73.7895 19.1627 73.9329 19.1576 73.9729 19.524C74.2743 19.143 74.5142 18.8758 74.5726 18.9056C74.7756 19.0097 74.9914 19.5989 74.537 20.1747C74.2669 20.517 73.1902 22.5085 73.9253 21.4851C73.9253 21.4851 75.2617 19.9607 75.3271 19.9271C75.3925 19.8928 75.6241 19.8541 75.6438 20.3391C75.6641 20.8235 75.0016 21.6501 74.8423 21.9136C73.4169 24.2765 75.5361 24.6661 76.1204 27.023C76.543 28.7282 75.7688 29.0546 74.8823 30.4684C74.6538 30.8322 73.3332 31.8308 72.7519 31.5629C72.7519 31.5629 74.8017 28.5111 71.6331 24.3521C71.5405 24.2302 71.682 23.775 71.8254 23.2995C71.9282 22.8189 72.0723 22.0164 72.4327 21.0864Z" fill="#BF6557"/>
<path d="M50.4074 80.9804L42.8976 59.5791L45.9062 58.875L52.0979 80.5544C52.1963 80.8979 51.9088 81.2648 51.4506 81.381C50.9905 81.4978 50.5267 81.3201 50.4074 80.9804Z" fill="#E3AB4A"/>
<path d="M40.4062 60.5944L11.8889 60.0186L2.74696 27.3008L29.997 27.3586L40.4062 60.5944Z" fill="#E3AB4A"/>
<path d="M14.5534 46.3671C15.7972 55.2673 17.6629 56.5624 15.5326 60.0186H11.8913L2.74868 27.3008L18.1445 27.3332C17.145 38.1875 13.8052 41.0101 14.5534 46.3671Z" fill="#E3AB4A"/>
<path d="M40.0425 65.5484L50.1973 59.0969L23.9391 56.5625L15.532 60.0187L40.0425 65.5484Z" fill="#E3AB4A"/>
<path d="M39.9466 87.1518C39.9104 87.1549 39.8749 87.1568 39.84 87.1568C39.411 87.1568 39.0391 86.92 38.9795 86.5924L35.6732 68.4613L35.1414 65.5479L34.9104 64.2794L37.992 64.0547L38.1735 65.5479L38.5283 68.4613L40.7151 86.4369C40.7582 86.7911 40.4174 87.1086 39.9466 87.1518Z" fill="#E3AB4A"/>
<path d="M15.5508 65.9539L14.5227 68.4616L6.99837 86.8144C6.86257 87.1445 6.28699 87.2397 5.85483 87.0473C5.49248 86.8861 5.37889 86.5763 5.37889 86.2754C5.37889 86.2163 5.3884 86.1579 5.40744 86.102L11.4462 68.4616L12.4432 65.5482L12.7529 64.6436L14.6846 65.5482L15.5508 65.9539Z" fill="#E3AB4A"/>
<path d="M10.183 63.6446L0.222472 31.2543C-0.277586 29.6272 0.634951 27.9029 2.26141 27.4026C3.88724 26.9023 5.61144 27.8153 6.1115 29.4418L16.0721 61.8321C16.5721 63.4592 15.6596 65.1835 14.0331 65.6838C12.4066 66.1841 10.6831 65.2711 10.183 63.6446Z" fill="#E3AB4A"/>
<path d="M25.8125 62.5225L25.0669 64.8105L24.4253 66.7792L23.6263 69.2317L19.6087 81.557C19.5104 81.8586 19.0433 81.9614 18.6416 81.8224C18.3053 81.7062 18.139 81.4624 18.1181 81.1971C18.1143 81.1444 18.1187 81.0923 18.1314 81.0415L21.2117 69.2317L21.8514 66.7792L22.3076 65.0302L22.9968 62.386L23.2107 61.5645L25.0066 62.226L25.8125 62.5225Z" fill="#E3AB4A"/>
<path d="M38.4216 66.009H13.5424C11.8411 66.009 10.4621 64.6294 10.4621 62.9273C10.4621 61.2253 11.8411 59.8457 13.5424 59.8457H38.4216C40.123 59.8457 41.502 61.2253 41.502 62.9273C41.502 64.6294 40.123 66.009 38.4216 66.009Z" fill="#E3AB4A"/>
<path d="M48.579 73.5308C48.383 72.8793 48.0141 76.7648 50.6879 80.6856C52.7076 83.6468 53.4937 82.128 54.9408 84.5955C55.24 85.106 56.1495 86.9788 55.1414 87.401C53.7832 87.9703 51.6653 87.3334 49.8261 85.6216C47.5998 83.55 46.5942 83.7588 46.005 83.5307C45.2546 83.2407 44.7998 82.4112 45.0365 81.1668C45.3337 79.6084 45.0837 76.8075 44.5133 74.3868L46.5708 74.2957L48.579 73.5308Z" fill="#C6856C"/>
<path d="M56.3319 85.9458C56.3532 86.7457 55.4441 87.6764 54.1662 87.6656C52.4303 87.6509 51.3543 86.8822 50.5851 86.2555C49.816 85.6289 48.9303 84.7433 47.8547 84.3151C46.7798 83.8864 45.7286 83.7343 45.3802 83.2597C44.5763 82.1628 44.9871 80.8154 45.1636 80.361C45.203 80.2591 45.2306 80.2025 45.2306 80.2025C45.2306 80.2025 47.1837 81.9357 48.3548 83.1073C49.526 84.2782 50.8027 85.1829 52.1601 85.0523C53.5182 84.9218 52.3468 82.8441 53.4575 82.9964C54.2485 83.1042 55.3575 84.0439 55.9395 84.9396C56.1749 85.3022 56.3241 85.6569 56.3319 85.9458Z" fill="#82AA8E"/>
<path d="M55.9385 84.9389C55.8605 85.0893 55.7657 85.2272 55.6534 85.3532C54.2171 86.9578 50.453 85.7999 47.247 82.7673C46.4313 81.9957 45.6041 81.5655 45.0359 80.7477C45.0752 80.6458 45.23 79.5873 45.23 79.5873C45.23 79.5873 47.1829 81.9339 48.3539 83.106C49.5251 84.277 50.4246 84.8955 51.7781 84.7275C52.7059 84.613 52.3459 82.8429 53.4566 82.9952C54.2475 83.1036 55.3565 84.0433 55.9385 84.9389Z" fill="#82AA8E"/>
<path d="M40.963 73.6035C40.963 73.6035 38.145 80.6376 43.0483 85.0821C46.4071 88.1266 47.8021 87.2228 47.5694 88.7989C47.4757 89.4362 46.1447 89.6374 45.0443 89.7412C42.8602 89.9476 41.5146 89.698 40.0239 88.458C37.4297 86.2999 36.7823 86.5274 35.947 85.621C35.0616 84.6603 35.1632 83.9473 35.6772 82.3804C36.5787 79.6337 35.8799 79.7213 36.5567 75.1836L37.0258 74.4678L40.963 73.6035Z" fill="#C6856C"/>
<path d="M42.9504 56.969C44.2241 57.1227 18.3169 61.2712 16.5926 55.5998C15.1534 50.8649 17.7432 49.8703 17.7432 49.8703C22.3112 50.0131 22.9822 51.2354 26.9835 50.8175C26.9835 50.8175 29.0936 50.6192 32.7611 50.2741C32.7611 50.2741 44.9325 51.1465 48.0735 53.0785C52.4541 55.7725 49.1981 76.4533 49.1981 76.4533L44.6414 76.7077C44.6414 76.7077 42.9271 56.966 42.9504 56.969Z" fill="#C4005B"/>
<path d="M40.1812 77.9484L35.8228 78.0517C35.8228 78.0517 34.5302 67.1701 37.4602 62.9205C40.5946 58.3746 17.4173 62.7276 16.3467 57.4793C15.5025 53.3406 24.2777 51.7338 24.2777 51.7338C24.2777 51.7338 46.002 52.2977 44.9591 59.1344C44.3694 63.0079 40.1812 77.9484 40.1812 77.9484Z" fill="#C4005B"/>
<path d="M43.7552 90.3457C41.0186 90.0236 39.0275 87.8751 38.0544 87.3499C36.7326 86.6367 35.2549 85.89 35.0328 85.154C34.8475 84.5391 34.9963 83.7975 35.217 83.1674C35.4861 82.3953 35.8623 81.7904 35.8623 81.7904C35.9404 82.0738 36.2902 83.1008 38.023 84.5227C40.416 86.487 40.1912 85.8893 41.2134 87.1221C41.5288 87.5038 42.2391 87.7414 43.0923 87.5644C43.9383 87.3886 44.2066 86.2132 45.0448 86.6146C45.4472 86.808 46.7087 87.1241 47.3266 87.8043C47.4961 87.9901 47.6172 88.203 47.6595 88.4473C47.8573 89.5882 45.7002 90.575 43.7552 90.3457Z" fill="#82AA8E"/>
<path d="M47.3268 87.8022C46.5329 89.2744 43.2671 89.1848 39.9717 87.5855C37.4528 86.3635 35.6364 84.6103 35.2171 83.1654C35.4863 82.3932 35.8624 81.7883 35.8624 81.7883C35.9405 82.0718 36.2904 83.0987 38.0232 84.5206C40.4162 86.4849 40.1913 85.8872 41.2135 87.12C41.529 87.5017 42.2393 87.7393 43.0925 87.5623C43.9385 87.3865 44.1461 86.1998 45.0473 86.5515C45.4627 86.7144 46.7082 87.122 47.3268 87.8022Z" fill="#82AA8E"/>
<path d="M43.3313 49.7198L49.8244 48.4564L57.2786 47.1931C58.5796 46.9002 58.873 46.655 59.0631 45.8453L59.0815 45.1942C58.7485 44.6647 59.5076 44.4269 58.3864 44.4269C55.8332 44.7626 43.9975 43.4177 42.8505 45.2289C41.4428 47.4495 42.9179 49.7683 43.3313 49.7198Z" fill="#C6856C"/>
<path d="M27.1426 23.4748L33.4936 31.4601L33.4549 22.8926L32.1394 11.126L27.8095 11.6821L27.1426 23.4748Z" fill="#C6856C"/>
<path d="M28.2657 5.64661C29.407 4.20545 29.4744 2.35723 28.4163 1.51849C27.3581 0.679761 25.5751 1.16813 24.4338 2.60929C23.2924 4.05046 23.225 5.89868 24.2831 6.73741C25.3413 7.57614 27.1243 7.08777 28.2657 5.64661Z" fill="#2E3656"/>
<path d="M43.0114 42.9245C43.0114 44.7478 46.535 44.2222 46.535 44.2222C46.535 44.2222 47.639 45.4149 45.4138 49.5594L43.0114 49.8802C41.2496 50.0406 38.4947 50.3502 37.258 46.2494C36.964 45.2744 36.8211 44.1679 36.6449 42.9245C36.4579 41.601 36.3683 40.9744 36.2693 40.2726L35.0664 21.1709C35.0664 21.1709 41.2849 22.6598 41.4097 27.9072C41.5804 35.0678 41.7301 38.0116 43.0114 42.9245Z" fill="#82AA8E"/>
<path d="M16.1053 52.6071C18.9045 45.5188 16.286 24.3706 19.5065 21.9981C20.9515 20.9328 21.6597 20.6249 27.3419 19.9805C27.3419 19.9805 27.2486 25.5857 31.1577 25.2962C33.1998 25.1451 33.208 21.5689 33.2036 20.6268C33.2036 20.6268 35.2794 20.8629 37.3507 22.0254C38.3787 22.6018 39.4048 23.4062 40.1759 24.5229C40.1759 24.5229 41.0491 33.0993 39.9284 36.8381C39.8072 37.2425 39.6847 37.6056 39.4911 37.8647C37.3861 40.6767 37.6603 48.5991 35.1646 51.324C35.1646 51.324 12.6151 63.9637 16.1053 52.6071Z" fill="#82AA8E"/>
<path d="M12.636 46.9632L27.1619 55.4266C28.2724 56.1643 28.4596 56.4983 28.3479 57.3223L28.1328 57.9369C27.6327 58.3127 27.4697 58.5692 27.1701 58.3914C24.9046 57.1668 10.566 53.1379 10.1402 51.0371C9.61792 48.4602 12.2673 46.7702 12.636 46.9632Z" fill="#C6856C"/>
<path d="M26.345 25.3417C27.5793 21.6462 21.7499 20.5447 20.1012 21.5776C17.936 22.9343 14.0574 26.5708 8.90954 43.0767C6.60153 50.4774 13.1378 54.7469 13.1378 54.7469L18.4475 50.0723C14.4584 47.9849 15.8907 45.0747 15.8907 45.0747C20.7022 31.8212 26.345 25.3417 26.345 25.3417Z" fill="#82AA8E"/>
<path d="M27.1214 58.273C26.4462 58.1086 27.0002 56.1043 27.3524 55.985C27.3524 55.985 26.2863 56.2408 32.4584 54.8175C32.5973 54.7857 32.9736 54.8238 33.4153 54.9324C33.7726 54.9501 35.2169 55.0276 35.8503 55.1616C36.804 55.3634 37.2432 55.319 37.3327 55.6396C37.3752 55.792 37.1239 55.8739 36.7653 55.9221C37.2825 56.3138 37.9019 56.7881 37.9241 56.8287C37.959 56.8922 37.9717 57.0484 37.5916 57.1125C38.0022 57.421 38.2922 57.6693 38.2636 57.7347C38.1652 57.9626 37.5617 58.2305 36.9411 57.7651C36.2913 57.2782 35.6707 56.9766 35.0976 56.8103C35.321 57.0128 35.5488 57.1677 35.5488 57.1677C35.5488 57.1677 36.8339 58.2826 36.898 58.3251C37.1061 58.4648 36.898 58.7295 36.3947 58.7784C35.8915 58.8273 35.4282 58.3543 35.1471 58.1949C34.7607 57.9759 33.6387 57.3887 33.3417 57.4909C33.2268 57.5302 32.8029 57.7074 32.3949 57.9156C30.2506 59.0114 28.8088 58.6832 27.1214 58.273Z" fill="#C6856C"/>
<path d="M56.2157 46.8648C55.5699 46.622 56.3536 44.7125 56.7149 44.637C56.7149 44.637 55.6334 44.7618 61.8859 44.0953C62.0266 44.0801 62.3932 44.1628 62.8153 44.323C63.1656 44.3831 64.5797 44.6319 65.1877 44.8394C66.1036 45.1525 66.5417 45.1605 66.5918 45.4873C66.6158 45.6427 66.3583 45.6932 65.9992 45.698C66.4621 46.1457 67.0166 46.6875 67.0336 46.7296C67.0606 46.7964 67.0543 46.9517 66.6725 46.9695C67.0407 47.3229 67.2968 47.6013 67.2608 47.6629C67.1366 47.8753 66.51 48.0678 65.9537 47.5353C65.3713 46.9776 64.7952 46.6062 64.2502 46.3741C64.446 46.6 64.6521 46.78 64.6521 46.78C64.6521 46.78 65.7865 48.0317 65.8439 48.0818C66.0327 48.2442 65.7959 48.4805 65.2939 48.4684C64.792 48.4562 64.3919 47.9349 64.1335 47.7446C63.7786 47.4824 62.7427 46.7701 62.4377 46.8353C62.3196 46.8607 61.8811 46.9839 61.4541 47.141C59.2118 47.9664 57.8297 47.4709 56.2157 46.8648Z" fill="#C6856C"/>
<path d="M31.9161 7.98599C31.3145 10.0049 27.9601 10.1274 27.6707 14.1226L27.5133 16.9566C27.5133 16.9566 21.9479 9.76742 26.569 9.17509C28.4652 8.93194 28.0051 7.98535 28.0051 7.98535L31.9161 7.98599Z" fill="#2E3656"/>
<path d="M27.6658 13.6295C28.4234 13.5585 28.9799 12.8866 28.9089 12.1287C28.8379 11.3708 28.1663 10.8141 27.4087 10.8851C26.6512 10.9561 26.0947 11.628 26.1656 12.3859C26.2366 13.1438 26.9083 13.7006 27.6658 13.6295Z" fill="#C6856C"/>
<path d="M33.4299 18.5735C35.8833 17.9422 37.3329 15.3324 36.6675 12.7445C36.0022 10.1565 33.4739 8.57035 31.0205 9.20165C28.567 9.83296 27.1175 12.4427 27.7828 15.0306C28.4482 17.6186 30.9764 19.2048 33.4299 18.5735Z" fill="#C6856C"/>
<path d="M28.3105 11.3284L36.8141 13.6945L36.7576 7.30078L29.4204 7.69567L28.3105 11.3284Z" fill="#C6856C"/>
<path d="M24.8222 11.7801C25.1179 13.0333 27.1017 7.64904 31.1085 8.57531C34.2345 9.29779 36.6206 8.59182 37.1955 7.45033C38.1918 5.47462 37.6016 2.61265 31.7545 2.61328C24.5411 2.61519 24.1533 8.94798 24.8222 11.7801Z" fill="#2E3656"/>
</svg>
