<svg width="24" height="24" viewBox="0 0 24 24" fill="none" xmlns="http://www.w3.org/2000/svg">
<path d="M19.2213 15.2686L16.6813 14.9786C16.0713 14.9086 15.4713 15.1186 15.0413 15.5486L13.2013 17.3886C10.3713 15.9486 8.05125 13.6386 6.61125 10.7986L8.46125 8.94855C8.89125 8.51855 9.10125 7.91855 9.03125 7.30855L8.74125 4.78855C8.62125 3.77855 7.77125 3.01855 6.75125 3.01855H5.02125C3.89125 3.01855 2.95125 3.95855 3.02125 5.08855C3.55125 13.6286 10.3813 20.4486 18.9113 20.9786C20.0413 21.0486 20.9813 20.1086 20.9813 18.9786V17.2486C20.9913 16.2386 20.2313 15.3886 19.2213 15.2686Z" fill="black"/>
</svg>
