<svg width="24" height="24" viewBox="0 0 24 24" fill="none" xmlns="http://www.w3.org/2000/svg">
<path d="M7.4 10.2966H8.99V15.2966C8.99 15.8466 9.44 16.2966 9.99 16.2966H13.99C14.54 16.2966 14.99 15.8466 14.99 15.2966V10.2966H16.58C17.47 10.2966 17.92 9.2166 17.29 8.5866L12.7 3.9966C12.31 3.6066 11.68 3.6066 11.29 3.9966L6.7 8.5866C6.07 9.2166 6.51 10.2966 7.4 10.2966ZM5 19.2966C5 19.8466 5.45 20.2966 6 20.2966H18C18.55 20.2966 19 19.8466 19 19.2966C19 18.7466 18.55 18.2966 18 18.2966H6C5.45 18.2966 5 18.7466 5 19.2966Z" fill="black"/>
</svg>
